<svg width="24" height="24" viewBox="0 0 24 24" fill="none" xmlns="http://www.w3.org/2000/svg">
<g id="7503212_notification_bell_alert_icon 2">
<path id="Vector" d="M4.64608 15.6469C4.64612 16.1092 4.52653 16.5638 4.29893 16.9663C4.07132 17.3687 3.74344 17.7055 3.34718 17.9437L19.743 16.9672M4.64608 15.6469H5.34608C5.34612 16.23 5.1953 16.8033 4.90824 17.3108C4.62118 17.8184 4.20766 18.2432 3.70789 18.5437L3.70741 18.5439L2.6921 19.1533L2.69073 19.1541C2.64633 19.1806 2.61179 19.2209 2.59237 19.2689C2.57295 19.3169 2.56972 19.3698 2.58315 19.4197C2.5966 19.4697 2.62598 19.5139 2.66674 19.5455L2.66684 19.5456C2.70692 19.5767 2.75586 19.5942 2.80644 19.5955H21.2274C21.2673 19.5936 21.3061 19.582 21.3403 19.5617L21.3405 19.5616C21.3764 19.5404 21.4062 19.5103 21.4272 19.4741L21.4273 19.4739C21.4482 19.4378 21.4595 19.3969 21.4601 19.3552L21.4601 19.355C21.4607 19.3133 21.4506 19.2721 21.4307 19.2354L21.4312 19.2349C21.4123 19.2025 21.3855 19.1754 21.3532 19.1563L21.3497 19.1543L20.3345 18.5449L20.334 18.5446C19.8342 18.2441 19.4207 17.8194 19.1336 17.3118M4.64608 15.6469V10.1559C4.64703 8.56284 5.16389 7.01292 6.11934 5.73816C7.0748 4.46337 8.41744 3.53232 9.94622 3.08438C10.0123 3.06548 10.0705 3.02575 10.1122 2.9711C10.1538 2.91645 10.1767 2.8498 10.1773 2.78109C10.1773 2.29214 10.3716 1.82322 10.7173 1.47748C11.0631 1.13174 11.532 0.9375 12.021 0.9375C12.5099 0.9375 12.9788 1.13174 13.3245 1.47748C13.6703 1.82322 13.8645 2.29214 13.8645 2.78109L18.6958 15.6477V10.1564C18.6949 8.71449 18.2271 7.31172 17.3624 6.15798L17.9225 5.73816L17.3624 6.15798C16.4976 5.00421 15.2825 4.16155 13.8988 3.75613C13.6894 3.69531 13.5051 3.56889 13.3729 3.39551L13.3727 3.39524C13.2395 3.22036 13.1665 3.0071 13.1646 2.7873L13.1645 2.78109H13.1645C13.1645 2.47781 13.0441 2.18693 12.8296 1.97246C12.6151 1.75798 12.3242 1.6375 12.021 1.6375C11.7176 1.6375 11.4268 1.75799 11.2123 1.97246C10.9978 2.18693 10.8773 2.47781 10.8773 2.78109V2.78778L10.8773 2.78778C10.8752 3.00761 10.802 3.22065 10.669 3.39524L10.6688 3.39554C10.5364 3.56919 10.3516 3.69587 10.1415 3.75659C8.75848 4.16219 7.5439 5.00465 6.67948 6.15798L6.67948 6.15798C5.81481 7.31162 5.34703 8.71425 5.34608 10.156C5.34608 10.1561 5.34608 10.1562 5.34608 10.1564L5.34608 15.6468L4.64608 15.6469ZM19.1336 17.3118L19.743 16.9672M19.1336 17.3118C19.1336 17.3118 19.1336 17.3118 19.1337 17.3118L19.743 16.9672M19.1336 17.3118C18.8465 16.8041 18.6958 16.2309 18.6958 15.6478H19.3958C19.3958 16.1102 19.5153 16.5647 19.743 16.9672" stroke="white" stroke-width="1.4"/>
<path id="Vector_2" d="M10.4272 22.5526C10.7752 22.7988 11.1757 22.9609 11.597 23.0262C12.0183 23.0916 12.449 23.0583 12.8553 22.929C13.2615 22.7997 13.6323 22.5779 13.9383 22.2811C14.2444 21.9843 14.4775 21.6206 14.6192 21.2185H9.42126C9.61101 21.7563 9.96234 22.2222 10.4272 22.5526Z" fill="white"/>
</g>
</svg>
