<svg width="17" height="16" viewBox="0 0 17 16" fill="none" xmlns="http://www.w3.org/2000/svg">
<path d="M5.37516 11.523V9.22301H7.63616V8.61301H5.37516V6.80101H7.83916V6.19101H4.69116V11.523H5.37516ZM8.67116 11.523H9.34716V8.98001C9.34716 8.42601 9.57416 7.97301 10.3002 7.97301C10.4252 7.97301 10.5582 7.97701 10.6292 7.98801V7.37501C10.5451 7.36237 10.4602 7.35569 10.3752 7.35501C9.79316 7.35501 9.48416 7.67501 9.36316 7.92201H9.34316V7.41801H8.67116V11.523ZM11.4762 6.43001C11.4762 6.66801 11.6682 6.85501 11.9062 6.85501C11.964 6.85781 12.0219 6.84883 12.0762 6.82861C12.1305 6.80839 12.1801 6.77735 12.2221 6.73738C12.264 6.69741 12.2974 6.64933 12.3203 6.59607C12.3431 6.5428 12.3548 6.48546 12.3548 6.42751C12.3548 6.36956 12.3431 6.31222 12.3203 6.25896C12.2974 6.20569 12.264 6.15762 12.2221 6.11764C12.1801 6.07767 12.1305 6.04663 12.0762 6.02641C12.0219 6.00619 11.964 5.99721 11.9062 6.00001C11.8495 5.99948 11.7934 6.01024 11.741 6.03166C11.6886 6.05308 11.641 6.08473 11.6009 6.12477C11.5609 6.1648 11.5292 6.21242 11.5078 6.26483C11.4864 6.31724 11.4756 6.37339 11.4762 6.43001ZM11.5702 11.523H12.2422V7.41801H11.5702V11.523Z" fill="black" fill-opacity="0.5"/>
<path d="M4.19116 0C4.32377 0 4.45095 0.0526784 4.54472 0.146447C4.63848 0.240215 4.69116 0.367392 4.69116 0.5V1H12.6912V0.5C12.6912 0.367392 12.7438 0.240215 12.8376 0.146447C12.9314 0.0526784 13.0586 0 13.1912 0C13.3238 0 13.4509 0.0526784 13.5447 0.146447C13.6385 0.240215 13.6912 0.367392 13.6912 0.5V1H14.6912C15.2216 1 15.7303 1.21071 16.1054 1.58579C16.4804 1.96086 16.6912 2.46957 16.6912 3V14C16.6912 14.5304 16.4804 15.0391 16.1054 15.4142C15.7303 15.7893 15.2216 16 14.6912 16H2.69116C2.16073 16 1.65202 15.7893 1.27695 15.4142C0.901876 15.0391 0.691162 14.5304 0.691162 14V3C0.691162 2.46957 0.901876 1.96086 1.27695 1.58579C1.65202 1.21071 2.16073 1 2.69116 1H3.69116V0.5C3.69116 0.367392 3.74384 0.240215 3.83761 0.146447C3.93138 0.0526784 4.05855 0 4.19116 0ZM1.69116 4V14C1.69116 14.2652 1.79652 14.5196 1.98406 14.7071C2.17159 14.8946 2.42595 15 2.69116 15H14.6912C14.9564 15 15.2107 14.8946 15.3983 14.7071C15.5858 14.5196 15.6912 14.2652 15.6912 14V4H1.69116Z" fill="black" fill-opacity="0.5"/>
</svg>
