<svg width="60" height="70" viewBox="0 0 60 70" fill="none" xmlns="http://www.w3.org/2000/svg">
<path d="M14.4141 0.24609C14.1562 0.382809 13.6875 0.820309 13.3594 1.23046L12.7734 1.96875L12.7031 17.3633L12.6562 32.7852L13.5938 32.3477L14.5312 31.9102V17.3633C14.5312 6.42578 14.6016 2.76171 14.8125 2.51562C15 2.29687 16.2188 2.1875 18.7734 2.1875H22.4531L22.5234 4.51171C22.6172 6.69921 22.6641 6.86328 23.3906 7.71093L24.1406 8.61328H32.8125H41.4844L42.2344 7.71093C42.9609 6.86328 43.0078 6.69921 43.1016 4.51171L43.1719 2.1875H46.875C49.6406 2.1875 50.625 2.26953 50.8125 2.54296C51 2.78906 51.1172 9.05078 51.1875 22.8594C51.2578 33.8242 51.3281 43.7227 51.3516 44.8437C51.375 45.9648 51.3047 48.0977 51.2109 49.5469C51.0938 51.3789 51.1172 52.2266 51.2812 52.2266C51.4219 52.2266 51.8438 52.6094 52.2422 53.0742L52.9688 53.9219L52.9219 27.918L52.8516 1.91406L52.0781 1.03906L51.3281 0.136715L33.0938 0.0820274C23.0859 0.0546837 14.6719 0.136715 14.4141 0.24609Z" fill="#F59E0B"/>
<path d="M40.6172 11.8125C40.4766 12.0039 39.9375 13.1797 39.4219 14.3828L38.4609 16.5977L36.6797 16.9258C35.6953 17.0899 34.7109 17.2266 34.4531 17.2266C33.9609 17.2266 33.2812 17.9102 33.2812 18.457C33.2812 18.6484 34.0547 19.6875 34.9922 20.7539L36.7266 22.7227L36.4219 24.6914C35.7188 29.3125 35.9766 29.6133 39.1172 27.7539L41.25 26.5234L43.3828 27.7539C46.5234 29.6133 46.7812 29.3125 46.0781 24.6914L45.7734 22.6953L47.5078 20.7813C48.4453 19.7149 49.2188 18.6758 49.2188 18.457C49.2188 17.8281 48.5156 17.2266 47.7422 17.1992C47.3203 17.1719 46.3125 17.0352 45.5156 16.8438L44.0156 16.543L42.9375 14.082C41.8125 11.5938 41.2031 10.9649 40.6172 11.8125Z" fill="#F59E0B"/>
<path d="M16.6876 17.2813C16.3126 17.7188 16.336 18.457 16.7345 18.8399C16.9454 19.0586 18.961 19.1406 23.5548 19.0859C29.461 19.0039 30.0939 18.9492 30.3282 18.5117C30.5157 18.1836 30.5157 17.9102 30.3282 17.5547C30.0939 17.1445 29.461 17.0899 23.5314 17.0078C18.6329 16.9531 16.8985 17.0352 16.6876 17.2813Z" fill="#F59E0B"/>
<path d="M16.6876 21.6563C16.3126 22.0938 16.336 22.832 16.7345 23.2149C16.9454 23.4336 18.961 23.5156 23.5548 23.4609C29.461 23.3789 30.0939 23.3242 30.3282 22.8867C30.5157 22.5586 30.5157 22.2852 30.3282 21.9297C30.0939 21.5195 29.461 21.4649 23.5314 21.3828C18.6329 21.3281 16.8985 21.4102 16.6876 21.6563Z" fill="#F59E0B"/>
<path d="M16.6876 26.0313C16.3126 26.4688 16.336 27.207 16.7345 27.5899C16.9454 27.8086 18.961 27.8906 23.5548 27.8359C29.461 27.7539 30.0939 27.6992 30.3282 27.2617C30.5157 26.9336 30.5157 26.6602 30.3282 26.3047C30.0939 25.8945 29.461 25.8399 23.5314 25.7578C18.6329 25.7031 16.8985 25.7852 16.6876 26.0313Z" fill="#F59E0B"/>
<path d="M16.7812 31.418C16.7109 31.5547 17.1094 31.7461 17.6719 31.8281C18.2578 31.9375 19.2187 32.3203 19.8515 32.6758C20.9531 33.3594 21.0703 33.3594 27.164 33.3594C33.2812 33.3594 33.375 33.3594 34.5469 32.6758C35.2031 32.3203 36.3281 31.8281 37.0312 31.6094C38.2265 31.2539 37.4531 31.1992 27.6094 31.1992C21.6094 31.1719 16.8515 31.2812 16.7812 31.418Z" fill="#F59E0B"/>
<path d="M42.6562 31.6094C43.3593 31.8281 44.4843 32.3203 45.164 32.7031C47.2734 33.9063 49.875 33.2774 49.0781 31.7734C48.8437 31.3633 48.3515 31.3086 45.0937 31.2539C41.414 31.1992 41.3906 31.1992 42.6562 31.6094Z" fill="#F59E0B"/>
<path d="M37.2656 33.7695C32.4375 35.3554 29.3437 40.9883 30.164 46.6484C31.3125 54.3594 38.414 58.5703 44.3437 55.0156C45.5859 54.25 45.7031 54.2226 46.0312 54.6601C46.3359 55.0429 46.3593 55.289 46.125 55.9453C45.6093 57.5859 45.9843 58.4609 49.2187 62.8633C50.9062 65.1328 52.5703 67.1562 52.9687 67.4023C55.4062 68.8789 58.125 65.6797 56.8594 62.8359C56.5078 62.0429 51.2578 54.8515 50.5078 54.1406C50.2734 53.9219 49.5703 53.7304 48.914 53.7031C48.2578 53.6758 47.6015 53.4844 47.414 53.2383C47.0859 52.8828 47.1328 52.6914 47.8125 51.5156C49.1484 49.2734 49.5468 47.7422 49.5468 44.8437C49.5468 41.8633 49.0781 40.1406 47.6953 37.9531C45.4453 34.3711 40.9687 32.5664 37.2656 33.7695ZM43.1484 36.4219C44.7656 37.2969 46.3125 39.1015 47.0859 41.0156C47.9531 43.1758 47.9531 46.5117 47.0859 48.6719C46.3125 50.5859 44.8593 52.2812 43.1718 53.2383C42.0234 53.8945 41.5547 54.0039 39.8437 54.0039C38.1562 54.0039 37.664 53.8945 36.539 53.2656C32.0156 50.6679 30.5156 44.2148 33.3515 39.5664C35.6015 35.875 39.7031 34.5625 43.1484 36.4219Z" fill="#F59E0B"/>
<path d="M38.2031 37.9805C37.2656 38.3359 36.2109 39.0195 35.8828 39.4844C35.6015 39.8672 36 39.9219 39.8437 39.9219C43.7109 39.9219 44.0859 39.8672 43.8047 39.4844C42.914 38.2539 39.75 37.3789 38.2031 37.9805Z" fill="#F59E0B"/>
<path d="M34.1484 42.3008C34.0781 42.4375 33.9609 42.9297 33.8672 43.3945L33.7031 44.2969H39.8438H45.9844L45.8203 43.3945C45.7266 42.9297 45.6094 42.4375 45.5391 42.3008C45.4922 42.1914 42.9141 42.1094 39.8438 42.1094C36.7734 42.1094 34.1953 42.1914 34.1484 42.3008Z" fill="#F59E0B"/>
<path d="M33.9844 46.7578C33.9844 47.3594 34.9219 49.1094 35.6719 49.9297C37.0078 51.4062 37.8984 51.8164 39.8438 51.8164C41.7891 51.8164 42.6797 51.4062 44.0156 49.9297C44.7656 49.1094 45.7031 47.3594 45.7031 46.7578C45.7031 46.5664 43.7344 46.4844 39.8438 46.4844C35.9531 46.4844 33.9844 46.5664 33.9844 46.7578Z" fill="#F59E0B"/>
<path d="M14.1797 34.4258C13.0313 35.0274 12.0704 36.1211 11.3907 37.5977C10.9454 38.582 10.8985 39.1289 10.8985 42.6563C10.8985 46.4844 10.9219 46.6758 11.5547 47.961C11.9063 48.6992 12.1875 49.4922 12.1875 49.7656C12.1875 50.0938 11.4141 50.6406 9.37504 51.6797C6.30473 53.2656 4.78129 54.7422 4.26567 56.6289C4.12504 57.1485 3.72661 59.8008 3.37504 62.5352C2.88286 66.5547 2.81254 67.6211 3.04692 67.9492C3.39848 68.4414 4.07817 68.4688 4.40629 68.0039C4.52348 67.8399 4.92192 65.461 5.27348 62.7813C5.62504 60.0742 6.00004 57.5586 6.11723 57.1758C6.51567 55.9727 7.31254 55.207 9.28129 54.1406C11.8125 52.7735 12.1407 52.6641 12.2344 53.1563C12.375 53.9219 15.961 58.5156 16.4063 58.5156C16.875 58.5156 20.625 53.7305 20.625 53.1289C20.625 52.6094 20.836 52.6641 23.2266 53.9766C25.4766 55.207 26.2735 55.9453 26.6954 57.1758C26.8125 57.5586 27.1875 60.0742 27.5391 62.7813C27.8907 65.461 28.2891 67.8399 28.4063 68.0039C28.7344 68.4688 29.4141 68.4414 29.7657 67.9492C30 67.6211 29.9297 66.5547 29.4375 62.5352C29.086 59.8008 28.6407 57.0391 28.4532 56.4102C27.8907 54.6055 26.2735 53.0742 23.2735 51.543C21.3985 50.6133 20.625 50.0938 20.625 49.7383C20.625 49.4922 20.9063 48.6992 21.2813 47.961C21.8907 46.6758 21.9141 46.4844 21.9141 42.6563C21.9141 39.0195 21.8672 38.582 21.375 37.4883C20.6954 36.0117 19.8516 35.082 18.6329 34.4258C17.4141 33.7695 15.3985 33.7695 14.1797 34.4258ZM17.5782 51.2422L18.75 50.9414V51.8164C18.75 52.4727 18.4688 53.0195 17.5782 54.168L16.4063 55.6445L15.2344 54.1406C14.3672 53.0195 14.0625 52.418 14.0625 51.7891V50.9414L15.2344 51.2422C16.0313 51.4336 16.7813 51.4336 17.5782 51.2422Z" fill="#F59E0B"/>
<path d="M22.7344 35.6836C22.7344 35.7383 22.9219 36.2305 23.1328 36.7773L23.5312 37.7344H26.6953L29.8828 37.707L30.5156 36.6406L31.1719 35.5469H26.9531C24.6328 35.5469 22.7344 35.6016 22.7344 35.6836Z" fill="#F59E0B"/>
<path d="M23.9062 41.0156V42.1094H26.1094C28.125 42.1094 28.3359 42.0547 28.4531 41.5625C28.5234 41.2617 28.6641 40.7695 28.7344 40.4688C28.8516 39.9492 28.7578 39.9219 26.3906 39.9219H23.9062V41.0156Z" fill="#F59E0B"/>
<path d="M23.8594 45.3906L23.7656 46.4844H25.9453H28.125V45.3906V44.2969H26.0391H23.9531L23.8594 45.3906Z" fill="#F59E0B"/>
<path d="M31.7109 68.2773C31.6406 68.5508 31.3594 69.043 31.1016 69.3711L30.6328 70H40.6172C46.9688 70 50.8359 69.8906 51.2344 69.7266L51.8906 69.4258L51.1172 68.6328L50.3672 67.8125H41.1094C32.5078 67.8125 31.8516 67.8398 31.7109 68.2773Z" fill="#F59E0B"/>
</svg>
