<svg width="24" height="24" viewBox="0 0 24 24" fill="none" xmlns="http://www.w3.org/2000/svg">
<mask id="mask0_813_3225" style="mask-type:luminance" maskUnits="userSpaceOnUse" x="1" y="1" width="22" height="22">
<path fill-rule="evenodd" clip-rule="evenodd" d="M1 1.00031H22.493V22.4941H1V1.00031Z" fill="white"/>
</mask>
<g mask="url(#mask0_813_3225)">
<path fill-rule="evenodd" clip-rule="evenodd" d="M6.1084 19.6753C6.6884 19.6753 7.2354 19.8953 7.8144 20.1283C11.3614 21.7683 15.5564 21.0223 18.2894 18.2903C21.8954 14.6823 21.8954 8.8133 18.2894 5.2073C16.5434 3.46131 14.2214 2.50031 11.7494 2.50031C9.2764 2.50031 6.9534 3.46231 5.2084 5.20831C2.4744 7.94031 1.7304 12.1353 3.3554 15.6483C3.5894 16.2273 3.8154 16.7913 3.8154 17.3773C3.8154 17.9623 3.6144 18.5513 3.4374 19.0713C3.2914 19.4993 3.0704 20.1453 3.2124 20.2873C3.3514 20.4313 4.0014 20.2043 4.4304 20.0573C4.9454 19.8813 5.5294 19.6793 6.1084 19.6753ZM11.7244 22.4943C10.1964 22.4943 8.6584 22.1713 7.2194 21.5053C6.7954 21.3353 6.3984 21.1753 6.1134 21.1753C5.7854 21.1773 5.3444 21.3293 4.9184 21.4763C4.0444 21.7763 2.9564 22.1503 2.1514 21.3483C1.3494 20.5453 1.7194 19.4603 2.0174 18.5873C2.1644 18.1573 2.3154 17.7133 2.3154 17.3773C2.3154 17.1013 2.1824 16.7493 1.9784 16.2423C0.105399 12.1973 0.971399 7.32231 4.1484 4.14731C6.1764 2.11831 8.8754 1.00031 11.7484 1.00031C14.6214 1.00031 17.3214 2.11731 19.3494 4.14631C23.5414 8.3383 23.5414 15.1583 19.3494 19.3503C17.2944 21.4063 14.5274 22.4943 11.7244 22.4943Z" fill="white"/>
</g>
<path fill-rule="evenodd" clip-rule="evenodd" d="M15.6963 13.163C15.1443 13.163 14.6923 12.716 14.6923 12.163C14.6923 11.61 15.1353 11.163 15.6873 11.163H15.6963C16.2483 11.163 16.6963 11.61 16.6963 12.163C16.6963 12.716 16.2483 13.163 15.6963 13.163Z" fill="white"/>
<path fill-rule="evenodd" clip-rule="evenodd" d="M11.6875 13.163C11.1355 13.163 10.6835 12.716 10.6835 12.163C10.6835 11.61 11.1255 11.163 11.6785 11.163H11.6875C12.2395 11.163 12.6875 11.61 12.6875 12.163C12.6875 12.716 12.2395 13.163 11.6875 13.163Z" fill="white"/>
<path fill-rule="evenodd" clip-rule="evenodd" d="M7.6783 13.163C7.1263 13.163 6.6743 12.716 6.6743 12.163C6.6743 11.61 7.1173 11.163 7.6693 11.163H7.6783C8.2303 11.163 8.6783 11.61 8.6783 12.163C8.6783 12.716 8.2303 13.163 7.6783 13.163Z" fill="white"/>
</svg>
