<svg width="70" height="72" viewBox="0 0 70 72" fill="none" xmlns="http://www.w3.org/2000/svg">
<path fill-rule="evenodd" clip-rule="evenodd" d="M70 36.3247C70 55.9964 54.3189 71.9346 35.0353 71.9346C15.6812 71.9346 0 55.9964 0 36.3247C0 16.653 15.6812 0.7146 35.0353 0.7146C54.3189 0.7146 70 16.653 70 36.3247ZM55.5903 62.0988C55.1665 54.345 48.9506 48.1708 41.2513 48.1708H28.7487C21.0494 48.1708 14.8335 54.345 14.4803 62.0988C20.0605 66.7655 27.1948 69.5654 35.0353 69.5654C42.8053 69.5654 49.9394 66.7655 55.5903 62.0988ZM67.669 36.3247C67.669 18.0171 53.0474 3.08385 35.0353 3.08385C16.9526 3.08385 2.33097 18.0171 2.33097 36.3247C2.33097 45.658 6.14532 54.1297 12.2906 60.1604C13.5621 52.0477 20.4137 45.8015 28.7487 45.8015H41.2513C49.5863 45.8015 56.4379 52.0477 57.7094 60.1604C63.8547 54.1297 67.669 45.658 67.669 36.3247ZM46.6902 29.217C46.6902 35.7503 41.4632 41.063 35.0353 41.063C28.5368 41.063 23.3098 35.7503 23.3098 29.217C23.3098 22.6119 28.5368 17.2992 35.0353 17.2992C41.4632 17.2992 46.6902 22.6119 46.6902 29.217ZM44.3592 29.217C44.3592 23.976 40.1917 19.6683 35.0353 19.6683C29.8789 19.6683 25.6407 23.976 25.6407 29.217C25.6407 34.458 29.8789 38.6938 35.0353 38.6938C40.1917 38.6938 44.3592 34.458 44.3592 29.217Z" fill="#F59E0B"/>
</svg>
