<svg width="26" height="24" viewBox="0 0 26 24" fill="none" xmlns="http://www.w3.org/2000/svg">
<g clip-path="url(#clip0_813_3120)">
<path d="M13.08 2C18.8239 2 23.48 6.477 23.48 12C23.48 17.523 18.8239 22 13.08 22C7.33607 22 2.67999 17.523 2.67999 12C2.67999 6.477 7.33607 2 13.08 2ZM13.08 4C10.8734 4 8.75717 4.84285 7.19686 6.34315C5.63656 7.84344 4.75999 9.87827 4.75999 12C4.75999 14.1217 5.63656 16.1566 7.19686 17.6569C8.75717 19.1571 10.8734 20 13.08 20C15.2866 20 17.4028 19.1571 18.9631 17.6569C20.5234 16.1566 21.4 14.1217 21.4 12C21.4 9.87827 20.5234 7.84344 18.9631 6.34315C17.4028 4.84285 15.2866 4 13.08 4ZM13.08 6C13.3347 6.00003 13.5806 6.08996 13.7709 6.25272C13.9613 6.41547 14.0829 6.63975 14.1127 6.883L14.12 7V11.586L16.9353 14.293C17.1218 14.473 17.2301 14.7144 17.2381 14.9684C17.2462 15.2223 17.1534 15.4697 16.9787 15.6603C16.8039 15.8508 16.5603 15.9703 16.2973 15.9944C16.0342 16.0185 15.7715 15.9454 15.5625 15.79L15.4647 15.707L12.3447 12.707C12.1831 12.5514 12.0793 12.349 12.0494 12.131L12.04 12V7C12.04 6.73478 12.1496 6.48043 12.3446 6.29289C12.5396 6.10536 12.8042 6 13.08 6Z" fill="#101010"/>
</g>
<defs>
<clipPath id="clip0_813_3120">
<rect x="0.599976" width="24.96" height="24" rx="12" fill="white"/>
</clipPath>
</defs>
</svg>
