<svg width="24" height="28" viewBox="0 0 24 28" fill="none" xmlns="http://www.w3.org/2000/svg">
<path fill-rule="evenodd" clip-rule="evenodd" d="M5.1 6.90015C5.1 3.10015 8.2 0 12 0C15.8 0 18.9 3.10015 18.9 6.90015C18.9 10.7001 15.8 13.7 12 13.7C8.2 13.7 5.1 10.7001 5.1 6.90015ZM6 6.90015C6 10.2001 8.7 12.9001 12 12.9001C15.3 12.9001 18 10.2001 18 6.90015C18 3.60015 15.3 0.900146 12 0.900146C8.7 0.900146 6 3.60015 6 6.90015ZM24 25.6001C24 26.6001 23.2 27.4001 22.1 27.4001H1.9C0.800002 27.4001 0 26.6001 0 25.6001C0 20.5001 4.2 16.3 9.3 16.3H14.7C19.8 16.3 24 20.5001 24 25.6001ZM23.1 25.6001C23.1 20.9001 19.4 17.2 14.7 17.2H9.3C4.6 17.2 0.900002 20.9001 0.900002 25.6001C0.900002 26.1001 1.3 26.6001 1.9 26.6001H22.1C22.7 26.6001 23.1 26.1001 23.1 25.6001Z" fill="white"/>
</svg>
