<svg width="20" height="20" viewBox="0 0 20 20" fill="none" xmlns="http://www.w3.org/2000/svg">
<path d="M20.0002 10.2249C20.0002 9.12773 19.0348 8.33325 17.9376 8.33325H12.0965C11.0586 8.33325 10.2173 9.17458 10.2173 10.2124C10.2173 11.2503 11.0586 12.0916 12.0965 12.0916H13.1488C14.482 12.0916 15.4713 13.3813 14.5533 14.3482C14.4934 14.4113 14.4316 14.473 14.3678 14.5331C13.9708 14.9081 13.6826 15.4034 13.6826 15.9495C13.6826 16.8472 14.4103 17.5749 15.308 17.5749H16.0549C16.6433 17.5749 17.221 17.3654 17.6134 16.927C19.1383 15.2232 20.0002 12.909 20.0002 10.2249Z" fill="#4285F4"/>
<path d="M10.2174 20C11.9379 20 13.4828 19.6499 14.8109 19.0165C16.0326 18.4338 15.9735 16.8176 14.8962 15.9981C14.1686 15.4446 13.1792 15.4456 12.3092 15.7264C11.6812 15.929 10.982 16.0417 10.2174 16.0417C8.05634 16.0417 6.16402 14.8854 5.09435 13.1817C4.64485 12.4657 3.91893 11.9083 3.07358 11.9083C1.98285 11.9083 1.09863 12.7925 1.09863 13.8833V13.982C1.09863 14.3115 1.17373 14.6382 1.33879 14.9234C3.09127 17.9503 6.40614 20 10.2174 20Z" fill="#34A853"/>
<path d="M3.19752 12.8881C3.96561 12.3045 4.22504 11.2885 4.17233 10.3252C4.16644 10.2175 4.16347 10.1091 4.16347 9.99993C4.16347 9.46107 4.24135 8.93854 4.37912 8.44114C4.44379 8.20767 4.48702 7.968 4.48702 7.72574V7.62314C4.48702 6.45973 3.54389 5.5166 2.38048 5.5166C1.59292 5.5166 0.85279 5.94981 0.583625 6.68994C0.207234 7.72492 0 8.83653 0 9.99993C0 10.6896 0.0728249 11.3611 0.210543 12.0092C0.496651 13.3556 2.10157 13.7209 3.19752 12.8881Z" fill="#FBBC05"/>
<path d="M10.2173 3.95833C11.0394 3.95833 11.8134 4.10961 12.5198 4.40811C13.5175 4.82964 14.7431 4.86207 15.5171 4.10448C16.3477 3.29154 16.3326 1.92527 15.3285 1.33991C13.8689 0.488954 12.1543 0 10.2173 0C6.80685 0 3.79388 1.64121 1.94219 4.15528C1.39219 4.90203 1.63659 5.92555 2.37502 6.48667C3.41422 7.27634 4.9533 6.78672 5.85376 5.84191C6.95362 4.6879 8.50066 3.95833 10.2173 3.95833Z" fill="#EA4335"/>
</svg>
