<svg width="78" height="40" viewBox="0 0 78 40" fill="none" xmlns="http://www.w3.org/2000/svg">
<g id="Home">
<path id="Vector" d="M47.5153 18.4768L40.0153 11.4006C40.0116 11.3974 40.0082 11.3939 40.005 11.3903C39.7289 11.1392 39.369 11 38.9958 11C38.6225 11 38.2627 11.1392 37.9866 11.3903L37.9763 11.4006L30.4847 18.4768C30.3319 18.6174 30.2099 18.7881 30.1265 18.9782C30.043 19.1683 30 19.3736 30 19.5812V28.2484C30 28.6462 30.158 29.0278 30.4393 29.3091C30.7206 29.5904 31.1022 29.7484 31.5 29.7484H36C36.3978 29.7484 36.7794 29.5904 37.0607 29.3091C37.342 29.0278 37.5 28.6462 37.5 28.2484V23.7484H40.5V28.2484C40.5 28.6462 40.658 29.0278 40.9393 29.3091C41.2206 29.5904 41.6022 29.7484 42 29.7484H46.5C46.8978 29.7484 47.2794 29.5904 47.5607 29.3091C47.842 29.0278 48 28.6462 48 28.2484V19.5812C48 19.3736 47.957 19.1683 47.8735 18.9782C47.7901 18.7881 47.6681 18.6174 47.5153 18.4768ZM46.5 28.2484H42V23.7484C42 23.3506 41.842 22.969 41.5607 22.6877C41.2794 22.4064 40.8978 22.2484 40.5 22.2484H37.5C37.1022 22.2484 36.7206 22.4064 36.4393 22.6877C36.158 22.969 36 23.3506 36 23.7484V28.2484H31.5V19.5812L31.5103 19.5718L39 12.4984L46.4906 19.57L46.5009 19.5793L46.5 28.2484Z" fill="white"/>
</g>
</svg>
