<svg width="60" height="71" viewBox="0 0 60 71" fill="none" xmlns="http://www.w3.org/2000/svg">
<path d="M4.26316 1.41466C3.63158 1.68389 2.80263 2.49157 2.36842 3.23195C1.61842 4.47713 1.57895 5.21751 1.57895 16.7607C1.57895 28.3712 1.53947 29.0106 0.789474 29.8183C0.0789474 30.5586 0 31.2317 0 35.9769C0 43.6162 0.276316 43.9528 6.71053 43.9528H10.6974L10.5789 47.7556L10.4605 51.5248L8.13158 51.6931C6.19737 51.8614 5.68421 52.0296 4.89474 52.871C4.14474 53.6786 3.94737 54.2844 3.94737 55.8998C3.94737 58.02 4.53947 58.9959 6.19737 59.7363C6.78947 60.0055 13.9342 60.1065 30.2763 60.1065C55.7763 60.1065 54.5921 60.2074 55.8553 58.0873C56.9605 56.27 56.4079 53.5777 54.6316 52.3325C54.1184 51.996 52.2632 51.8277 47.4079 51.6931L40.8553 51.5248V47.8229V44.121L49.5395 43.9528C54.3158 43.8181 58.2632 43.7172 58.3421 43.6835C58.3816 43.6499 58.7763 43.1114 59.2105 42.5057C59.9211 41.5634 60 40.823 60 36.0105C60 31.0971 59.9211 30.4913 59.2105 29.7173C58.4605 28.9096 58.4211 28.3712 58.4211 16.727C58.4211 5.18386 58.3816 4.47713 57.6316 3.23195C56.1711 0.775242 57.3553 0.876202 29.9211 0.876202C8.92105 0.909855 5.17105 0.977161 4.26316 1.41466ZM54.2763 2.72715C55.1053 2.99638 55.8158 3.56849 56.0526 4.10694C56.2895 4.6454 56.4079 9.42421 56.3684 16.6261L56.25 28.3039H30H3.75L3.63158 16.6261C3.59211 9.42421 3.71053 4.6454 3.94737 4.10694C4.73684 2.256 4.89474 2.256 29.9211 2.22234C49.1447 2.22234 53.1316 2.28965 54.2763 2.72715ZM56.8421 30.2558C57.8289 30.6596 57.8289 30.7269 57.9474 35.8086C57.9868 38.972 57.8684 41.1932 57.6316 41.597C57.1974 42.2701 56.7237 42.2701 30 42.2701C3.27632 42.2701 2.80263 42.2701 2.36842 41.597C2.13158 41.1932 2.01316 38.972 2.05263 35.8086C2.17105 30.7269 2.17105 30.6596 3.15789 30.2558C3.90789 29.9192 9.94737 29.8183 30 29.8183C50.0526 29.8183 56.0921 29.9192 56.8421 30.2558ZM38.6842 47.8229V51.6931H25.6579L12.6316 51.6594V47.7893V43.9528H25.6579H38.6842V47.8229ZM53.6447 53.8469C54.6711 54.6546 54.7895 56.9094 53.8026 57.818C53.2105 58.3901 51.9474 58.4238 30 58.4238C11.9211 58.4238 6.71053 58.3228 6.43421 57.9863C5.21053 56.6738 5.60526 54.1161 7.14474 53.4767C7.85526 53.1402 13.1842 53.0729 30.4342 53.1402C51.8289 53.2075 52.8553 53.2411 53.6447 53.8469Z" fill="#D97706"/>
<path d="M24.1972 6.39519L23.092 7.20288L22.9735 14.9095C22.8551 22.347 22.8946 22.6162 23.763 24.097C24.3946 25.1402 25.1841 25.8133 26.4472 26.3854C28.1051 27.1258 28.5788 27.1594 33.3946 27.0585C38.5657 26.9575 38.6051 26.9575 40.3814 25.847C41.3683 25.2748 42.3551 24.77 42.5525 24.77C42.7893 24.77 43.342 24.3662 43.7762 23.895C44.4867 23.121 44.6051 22.5153 44.6051 19.722V16.4576L47.8025 16.2557C52.1051 16.0201 52.3025 15.8182 52.3025 11.948C52.3025 9.15479 52.2235 8.8519 51.3551 8.24614C50.842 7.9096 49.9341 7.60672 49.263 7.60672C47.9209 7.60672 46.1841 8.91921 46.1841 9.96247C46.1841 10.5346 45.9472 10.6355 44.4472 10.6355C42.2367 10.6355 40.8157 11.1067 39.2762 12.2509C38.1314 13.1259 37.9735 13.1596 34.0656 13.0586L30.0788 12.9576L29.9209 10.0634C29.8025 7.43845 29.7235 7.13557 28.6972 6.39519C27.2762 5.35193 25.6183 5.35193 24.1972 6.39519ZM27.5525 7.67403C28.1446 8.17883 28.2235 21.8085 27.6314 22.7845C27.3946 23.121 26.8814 23.4239 26.4472 23.4239C25.0656 23.4239 24.8683 22.347 24.8683 15.1115C24.8683 7.9096 24.9867 7.27019 26.4472 7.27019C26.8025 7.27019 27.2762 7.43845 27.5525 7.67403ZM50.4472 11.7798C50.5262 13.4288 50.4078 14.2028 50.0525 14.3711C49.7762 14.5394 48.3551 14.674 46.8946 14.674C42.9867 14.674 42.6314 15.0778 42.6314 19.3182C42.6314 22.5826 42.3157 23.4239 41.2104 23.4239C39.8683 23.4239 39.4735 22.4143 39.4735 18.8134C39.4735 13.4288 40.3814 12.3182 44.9209 12.3182C47.4472 12.3182 48.1578 11.948 48.1578 10.6355C48.1578 9.52497 48.4735 9.22209 49.5393 9.35671C50.2499 9.45767 50.3288 9.7269 50.4472 11.7798ZM37.4999 18.6114C37.4999 21.9768 37.6183 22.7508 38.2893 23.6931L39.0788 24.77L38.0525 25.1066C36.9867 25.4768 29.2893 25.5777 28.263 25.2412C27.7893 25.0729 27.8683 24.9047 28.7367 24.2652C29.763 23.4912 29.8025 23.3902 29.9209 19.0826L30.0788 14.674H33.7893H37.4999V18.6114Z" fill="#D97706"/>
<path d="M11.0527 14.9769C10.3027 15.3135 9.15795 16.2221 8.4869 16.9962C5.56584 20.5298 8.25005 25.8807 13.1843 26.3518C16.8553 26.722 19.3816 25.6451 20.9211 23.0538C22.7764 19.9913 21.1579 16.1548 17.4869 14.8087C15.6711 14.1356 12.6711 14.2366 11.0527 14.9769ZM17.5264 16.7269C21.5527 19.4192 19.6579 24.7701 14.6448 24.7701C12.7106 24.7701 10.579 23.8951 9.94742 22.8519C8.56584 20.6644 9.31584 17.8375 11.6053 16.6596C13.3027 15.7846 16.1448 15.8183 17.5264 16.7269Z" fill="#D97706"/>
<path d="M29.0527 31.8709C27.3948 32.9815 27.6711 35.2026 29.6053 36.0439C32.6843 37.3901 35.4475 34.092 32.9606 32.0055C31.7764 30.9959 30.4343 30.9286 29.0527 31.8709ZM31.8948 33.6545C32.0527 34.3613 31.3422 34.8997 30.5132 34.6305C29.9606 34.4622 29.8027 33.4526 30.2764 33.0488C30.7501 32.6449 31.7764 33.0151 31.8948 33.6545Z" fill="#D97706"/>
<path d="M40.0659 31.9046C37.9343 33.4863 39.079 36.2122 41.8422 36.2795C43.658 36.3468 45.158 34.8661 44.8422 33.3853C44.6843 32.8132 44.3685 32.1738 44.0922 31.9382C43.8159 31.7026 43.0659 31.4334 42.3948 31.2988C41.4475 31.1642 40.9343 31.2988 40.0659 31.9046ZM42.908 33.3853C43.0264 33.6545 42.829 34.1594 42.4738 34.4622C41.8422 35.0007 41.7632 35.0007 41.2501 34.3949C40.8159 33.9238 40.7764 33.6209 41.0922 33.2844C41.6843 32.6786 42.5922 32.7459 42.908 33.3853Z" fill="#D97706"/>
<path d="M49.6974 32.1402C48.3158 33.3517 48.2368 34.1931 49.4605 35.4046C50.7632 36.6498 52.6579 36.6498 53.9605 35.4046C54.4342 34.8998 54.8684 34.1931 54.8684 33.8229C54.8684 32.9143 52.7763 31.1643 51.7105 31.1643C51.2368 31.1643 50.329 31.6018 49.6974 32.1402ZM52.5 33.3854C52.9342 33.7892 52.8947 33.9912 52.3816 34.4623C51.75 34.9671 51.6711 34.9671 51.0395 34.4623C50.5263 33.9912 50.4868 33.7892 50.9211 33.3854C51.1974 33.0825 51.5526 32.8469 51.7105 32.8469C51.8684 32.8469 52.2237 33.0825 52.5 33.3854Z" fill="#D97706"/>
<path d="M4.61836 31.7365C4.46046 31.8375 4.34204 33.7894 4.34204 36.0778C4.34204 40.1835 4.34204 40.1835 5.32888 40.3855C6.90783 40.722 23.3684 40.5874 24.1578 40.2172C24.7894 39.9143 24.8684 39.4095 24.8684 36.1115C24.8684 33.5874 24.7105 32.174 24.3947 31.9048C23.8815 31.4673 5.09204 31.299 4.61836 31.7365ZM22.8157 35.9432L22.6973 38.7364L14.5263 38.8374L6.31573 38.9047V36.0442V33.1836H14.6052H22.9341L22.8157 35.9432Z" fill="#D97706"/>
<path d="M9.00008 35.4383C8.60534 35.5056 8.28955 35.8758 8.28955 36.246C8.28955 36.8517 8.64481 36.8854 14.3685 36.8854C19.4606 36.8854 20.4869 36.8181 20.6843 36.3806C20.8422 36.0104 20.5659 35.7412 19.8948 35.5392C18.908 35.2027 10.3422 35.1354 9.00008 35.4383Z" fill="#D97706"/>
<path d="M27.8288 38.2315C27.4736 38.7363 28.3815 39.9141 29.4472 40.2507C29.9999 40.4526 35.4472 40.5872 41.5657 40.5536C50.6841 40.5536 52.8551 40.4526 53.6051 40.0488C54.7104 39.443 54.8288 37.8949 53.7236 37.8949C53.3288 37.8949 52.8946 38.1305 52.7367 38.3997C52.4209 39.1738 30.0788 39.1738 29.763 38.3997C29.4867 37.8276 28.1841 37.7267 27.8288 38.2315Z" fill="#D97706"/>
<path d="M14.3683 46.1066C14.2499 46.3421 14.2104 47.2844 14.2894 48.1931L14.4078 49.8421L17.1315 49.9431C20.1709 50.044 21.2367 49.6065 19.9736 48.7988C19.5394 48.5296 18.513 48.3277 17.6841 48.3277C16.1841 48.3277 16.1841 48.3277 16.1841 46.9815C16.1841 45.8373 16.0657 45.6354 15.3946 45.6354C14.9604 45.6354 14.4867 45.8373 14.3683 46.1066Z" fill="#D97706"/>
<path d="M22.3815 45.8709C22.0262 46.1401 22.0262 48.7651 22.342 49.4718C22.5394 49.8756 23.1709 50.0103 25.263 50.0103C26.8815 50.0103 28.1051 49.842 28.263 49.6064C28.6973 49.0343 27.2367 48.3276 25.5788 48.3276C24.0788 48.3276 24.0788 48.3276 24.0788 46.9814C24.0788 45.9045 23.9209 45.6353 23.3683 45.6353C22.9736 45.6353 22.4999 45.7363 22.3815 45.8709Z" fill="#D97706"/>
<path d="M30.2368 46.1737C30.1184 46.4766 30 47.217 30 47.8228C30 49.8756 30.1974 50.0103 33.1579 50.0103C34.7763 50.0103 36 49.842 36.1579 49.6064C36.5921 49.0343 35.1316 48.3276 33.4737 48.3276C31.9737 48.3276 31.9737 48.3276 31.9737 46.9814C31.9737 45.8709 31.8158 45.6353 31.2237 45.6353C30.8289 45.6353 30.3553 45.8709 30.2368 46.1737Z" fill="#D97706"/>
<path d="M10.8554 61.9573C6.78965 63.1688 5.96071 67.3419 9.31597 69.8659C10.4212 70.6736 11.0528 70.8755 12.5528 70.8755C14.8818 70.8755 16.816 69.8995 17.6054 68.3515C19.5397 64.3467 15.5923 60.5775 10.8554 61.9573ZM14.2107 63.64C17.5265 65.0871 16.4607 69.1928 12.8291 69.1928C10.9739 69.1928 9.90807 68.688 9.43439 67.5774C8.76334 66.1303 9.35544 64.5486 10.7765 63.8082C12.316 63.0006 12.7107 63.0006 14.2107 63.64Z" fill="#D97706"/>
<path d="M44.4078 61.789C42.5525 62.1256 41.4868 62.8659 40.6183 64.414C39.4736 66.3659 39.8683 67.914 41.842 69.5967C43.1446 70.7072 43.5789 70.8755 45.1578 70.8755C47.4473 70.8755 49.1446 70.1688 50.1315 68.7553C52.6183 65.289 49.0262 60.9813 44.4078 61.789ZM48.0789 64.2121C49.3025 65.2217 49.2631 67.2746 47.9604 68.3515C46.1052 69.9668 42.6315 69.1928 41.9999 67.0053C41.6446 65.7601 42.592 64.1448 43.9736 63.6063C45.4341 63.0679 46.8552 63.2698 48.0789 64.2121Z" fill="#D97706"/>
</svg>
