<svg width="20" height="20" viewBox="0 0 26 25" fill="none" xmlns="http://www.w3.org/2000/svg">
<path fill-rule="evenodd" clip-rule="evenodd" d="M22.2001 13.8V21.2C22.2001 23.1 20.7001 24.7 18.7001 24.7H4.1001C2.2001 24.7 0.600098 23.1 0.600098 21.2V6.59985C0.600098 4.59985 2.2001 3.09985 4.1001 3.09985H11.4001C11.6001 3.09985 11.8001 3.3 11.8001 3.5C11.8001 3.7 11.6001 3.8999 11.4001 3.8999H4.1001C2.6001 3.8999 1.40009 5.09985 1.40009 6.59985V21.2C1.40009 22.7 2.6001 23.8999 4.1001 23.8999H18.7001C20.2001 23.8999 21.4001 22.7 21.4001 21.2V13.8C21.4001 13.6 21.6001 13.5 21.8001 13.5C22.0001 13.5 22.2001 13.6 22.2001 13.8ZM24.8001 5.09985L22.8001 7.19995L12.5001 17.3999C12.4335 17.4666 12.3334 17.5332 12.2001 17.5999L7.50012 18.5C7.43346 18.5 7.40009 18.5 7.40009 18.5C7.00009 18.5 6.70011 18.2 6.80011 17.8L7.70007 13.0999C7.76674 12.9665 7.83342 12.8667 7.90009 12.8L19.1001 1.5L20.2001 0.5C20.5001 0.2 20.9001 0 21.4001 0C21.8001 0 22.3001 0.2 22.6001 0.5L24.8001 2.69995C25.5001 3.39995 25.5001 4.49985 24.8001 5.09985ZM21.4001 7.3999L17.9001 3.8999L8.50012 13.3L7.6001 17.7L12.0001 16.8L21.4001 7.3999ZM24.3001 3.19995L22.1001 1C21.9001 0.8 21.6668 0.699951 21.4001 0.699951C21.1334 0.699951 20.9001 0.8 20.7001 1L18.4001 3.30005L22.0001 6.8999L24.3001 4.59985C24.7001 4.19985 24.7001 3.59995 24.3001 3.19995Z" fill="#F59E0B"/>
</svg>
