<svg width="78" height="40" viewBox="0 0 78 40" fill="none" xmlns="http://www.w3.org/2000/svg">
<g id="Profile">
<path id="Vector" d="M48.6489 27.875C47.2211 25.4065 45.0208 23.6365 42.4529 22.7975C43.7231 22.0414 44.7099 20.8892 45.2619 19.5179C45.8139 18.1467 45.9004 16.6321 45.5083 15.2069C45.1162 13.7817 44.2671 12.5245 43.0914 11.6286C41.9156 10.7327 40.4783 10.2474 39.0001 10.2474C37.5219 10.2474 36.0846 10.7327 34.9089 11.6286C33.7332 12.5245 32.8841 13.7817 32.492 15.2069C32.0998 16.6321 32.1864 18.1467 32.7384 19.5179C33.2903 20.8892 34.2772 22.0414 35.5473 22.7975C32.9795 23.6356 30.7792 25.4056 29.3514 27.875C29.299 27.9604 29.2643 28.0554 29.2492 28.1544C29.2342 28.2534 29.2391 28.3544 29.2637 28.4515C29.2884 28.5486 29.3322 28.6397 29.3926 28.7196C29.4531 28.7995 29.5289 28.8664 29.6156 28.9165C29.7023 28.9666 29.7982 28.9988 29.8976 29.0113C29.997 29.0237 30.0978 29.0161 30.1942 28.989C30.2906 28.9618 30.3806 28.9156 30.4588 28.8531C30.5371 28.7906 30.602 28.713 30.6498 28.625C32.4161 25.5725 35.5379 23.75 39.0001 23.75C42.4623 23.75 45.5842 25.5725 47.3504 28.625C47.3982 28.713 47.4632 28.7906 47.5414 28.8531C47.6197 28.9156 47.7097 28.9618 47.806 28.989C47.9024 29.0161 48.0033 29.0237 48.1027 29.0113C48.2021 28.9988 48.2979 28.9666 48.3847 28.9165C48.4714 28.8664 48.5472 28.7995 48.6076 28.7196C48.6681 28.6397 48.7119 28.5486 48.7365 28.4515C48.7611 28.3544 48.7661 28.2534 48.751 28.1544C48.736 28.0554 48.7012 27.9604 48.6489 27.875ZM33.7501 17C33.7501 15.9616 34.058 14.9466 34.6349 14.0832C35.2118 13.2199 36.0317 12.547 36.991 12.1496C37.9504 11.7523 39.006 11.6483 40.0244 11.8509C41.0428 12.0534 41.9782 12.5535 42.7124 13.2877C43.4467 14.0219 43.9467 14.9574 44.1493 15.9758C44.3518 16.9942 44.2479 18.0498 43.8505 19.0091C43.4531 19.9684 42.7802 20.7883 41.9169 21.3652C41.0535 21.9421 40.0385 22.25 39.0001 22.25C37.6082 22.2485 36.2737 21.6949 35.2895 20.7107C34.3052 19.7264 33.7516 18.3919 33.7501 17Z" fill="white"/>
</g>
</svg>
