<svg width="72" height="72" viewBox="0 0 72 72" fill="none" xmlns="http://www.w3.org/2000/svg">
<path d="M38.13 33.87C37.8447 33.5969 37.5083 33.3828 37.14 33.24C36.4096 32.9399 35.5904 32.9399 34.86 33.24C34.4917 33.3828 34.1553 33.5969 33.87 33.87L27.87 39.87C27.3051 40.4349 26.9877 41.2011 26.9877 42C26.9877 42.7989 27.3051 43.5651 27.87 44.13C28.4349 44.6949 29.2011 45.0123 30 45.0123C30.7989 45.0123 31.5651 44.6949 32.13 44.13L33 43.23V51C33 51.7957 33.3161 52.5587 33.8787 53.1213C34.4413 53.6839 35.2044 54 36 54C36.7956 54 37.5587 53.6839 38.1213 53.1213C38.6839 52.5587 39 51.7957 39 51V43.23L39.87 44.13C40.1489 44.4112 40.4807 44.6344 40.8463 44.7867C41.2118 44.939 41.604 45.0174 42 45.0174C42.396 45.0174 42.7882 44.939 43.1537 44.7867C43.5193 44.6344 43.8511 44.4112 44.13 44.13C44.4112 43.8511 44.6344 43.5193 44.7867 43.1537C44.939 42.7882 45.0174 42.396 45.0174 42C45.0174 41.604 44.939 41.2118 44.7867 40.8463C44.6344 40.4807 44.4112 40.1489 44.13 39.87L38.13 33.87ZM60 26.82C59.9688 26.5444 59.9084 26.2729 59.82 26.01V25.74C59.6758 25.4315 59.4834 25.148 59.25 24.9L41.25 6.9C41.002 6.66665 40.7185 6.47424 40.41 6.33H40.11C39.8183 6.17401 39.5048 6.06277 39.18 6H21C18.6131 6 16.3239 6.94821 14.636 8.63604C12.9482 10.3239 12 12.6131 12 15V57C12 59.3869 12.9482 61.6761 14.636 63.364C16.3239 65.0518 18.6131 66 21 66H51C53.3869 66 55.6761 65.0518 57.364 63.364C59.0518 61.6761 60 59.3869 60 57V26.82ZM42 16.23L49.77 24H45C44.2043 24 43.4413 23.6839 42.8787 23.1213C42.3161 22.5587 42 21.7956 42 21V16.23ZM54 57C54 57.7957 53.6839 58.5587 53.1213 59.1213C52.5587 59.6839 51.7957 60 51 60H21C20.2044 60 19.4413 59.6839 18.8787 59.1213C18.3161 58.5587 18 57.7957 18 57V15C18 14.2044 18.3161 13.4413 18.8787 12.8787C19.4413 12.3161 20.2044 12 21 12H36V21C36 23.3869 36.9482 25.6761 38.636 27.364C40.3239 29.0518 42.6131 30 45 30H54V57Z" fill="#F59E0B"/>
</svg>
