<svg width="74" height="76" viewBox="0 0 74 76" fill="none" xmlns="http://www.w3.org/2000/svg">
<path d="M61.7611 24.4447L45.5736 7.81969C45.3587 7.59921 45.1036 7.42437 44.8228 7.30518C44.5421 7.18598 44.2413 7.12476 43.9375 7.125H16.1875C14.9609 7.125 13.7845 7.62545 12.9171 8.51624C12.0498 9.40704 11.5625 10.6152 11.5625 11.875V64.125C11.5625 65.3848 12.0498 66.593 12.9171 67.4838C13.7845 68.3746 14.9609 68.875 16.1875 68.875H57.8125C59.0391 68.875 60.2155 68.3746 61.0829 67.4838C61.9502 66.593 62.4375 65.3848 62.4375 64.125V26.125C62.4377 25.813 62.3781 25.504 62.2621 25.2157C62.146 24.9274 61.9758 24.6654 61.7611 24.4447ZM46.25 15.2327L54.5432 23.75H46.25V15.2327ZM57.8125 64.125H16.1875V11.875H41.625V26.125C41.625 26.7549 41.8686 27.359 42.3023 27.8044C42.736 28.2498 43.3242 28.5 43.9375 28.5H57.8125V64.125Z" fill="#F59E0B"/>
</svg>
