<svg width="60" height="70" viewBox="0 0 60 70" fill="none" xmlns="http://www.w3.org/2000/svg">
<path d="M50 20.4166V61.25C50 62.0235 49.7366 62.7654 49.2678 63.3124C48.7989 63.8594 48.163 64.1666 47.5 64.1666H12.5C11.837 64.1666 11.2011 63.8594 10.7322 63.3124C10.2634 62.7654 10 62.0235 10 61.25V8.74998C10 7.97643 10.2634 7.23457 10.7322 6.68758C11.2011 6.1406 11.837 5.83331 12.5 5.83331H37.5M50 20.4166H37.5V5.83331M50 20.4166L37.5 5.83331" stroke="#F59E0B" stroke-width="4" stroke-linecap="round" stroke-linejoin="round"/>
<path d="M30 52.5C35.5228 52.5 40 47.2766 40 40.8333C40 34.39 35.5228 29.1667 30 29.1667C24.4772 29.1667 20 34.39 20 40.8333C20 47.2766 24.4772 52.5 30 52.5Z" stroke="#F59E0B" stroke-width="4"/>
<path d="M28.75 36.4583V42.2916H33.75" stroke="#F59E0B" stroke-width="4" stroke-linecap="round" stroke-linejoin="round"/>
</svg>
